
<svg width="720" height="470" viewBox="0 0 720 470" fill="none" xmlns="http://www.w3.org/2000/svg">
<path d="M202.735 884C184.577 884 168.487 872.288 162.971 855.064C144.813 799.26 126.195 742.767 108.267 688.111C73.0998 580.636 36.5538 469.717 1.84653 360.175C-3.21015 343.87 2.30624 325.269 16.0972 312.179C40.2314 286.918 59.7686 257.293 78.8461 228.587C109.186 182.658 140.676 135.35 190.783 105.496C229.168 82.5316 272.149 69.4417 313.752 56.8111C355.815 43.9509 399.256 30.861 438.331 7.437C453.73 -2.66747 473.497 -2.43782 487.518 7.8963C620.601 104.118 755.523 202.178 886.077 297.252L909.062 314.016C923.313 324.35 929.519 343.181 924.002 360.405C901.017 431.825 867.689 492.911 832.062 557.671C827.236 566.628 822.179 575.584 817.352 584.54C781.955 649.53 775.06 718.424 767.475 791.452C765.406 811.661 763.338 832.329 760.579 852.768C757.361 871.14 741.962 883.77 723.114 883.77C615.544 883.77 507.745 883.77 400.176 883.77C334.668 884 268.702 884 202.735 884ZM463.154 2.15512C455.11 2.15512 446.835 4.45159 439.71 9.27418C400.405 32.9278 356.734 46.0177 314.442 58.8779C272.839 71.5085 230.087 84.5984 191.932 107.334C142.285 136.958 111.025 184.265 80.9147 229.735C61.8372 258.441 42.0702 288.295 17.936 313.557C4.83458 325.958 -0.681803 343.87 4.37488 359.027C39.0821 468.568 75.6282 579.488 110.795 686.963C128.723 741.619 147.341 798.342 165.499 853.916C170.786 870.221 185.956 881.244 202.965 881.244C268.932 881.244 334.898 881.244 400.635 881.244C508.205 881.244 616.004 881.244 723.574 881.244C741.732 881.244 755.753 869.532 758.741 852.079C761.499 831.641 763.567 810.972 765.636 790.763C773.221 717.506 780.117 648.382 815.743 583.162C820.57 574.206 825.627 565.25 830.453 556.294C865.85 491.763 899.179 430.677 922.163 359.486C927.22 342.951 921.474 325.269 908.143 315.623L885.158 298.859C754.603 203.785 619.682 105.726 486.599 9.50383C479.474 4.68124 471.429 2.15512 463.154 2.15512Z" fill="white"/>
<path d="M226.409 847.486C208.251 847.486 192.162 835.774 186.645 818.551C166.878 757.694 146.192 695.919 126.195 636.44C96.0846 547.108 65.0549 454.56 36.5536 363.16C31.7268 347.774 36.3237 328.024 48.2759 311.719C60.9176 292.659 72.6399 271.99 84.1324 251.781C114.013 198.963 144.813 144.536 199.517 112.615C239.74 88.9617 286.86 78.6276 332.37 68.5231C367.077 60.7151 402.934 52.9071 435.572 39.1283C452.581 31.0906 472.578 32.0092 486.139 41.6544C568.195 100.444 650.941 161.071 730.929 219.861C776.898 253.619 824.477 288.525 871.367 322.513C886.307 333.306 892.283 352.367 885.847 368.672C866.999 413.223 839.877 451.115 813.444 487.859C798.274 508.986 782.645 530.803 768.394 553.997C727.251 621.513 727.021 700.053 727.021 776.066C727.021 786.4 727.021 796.504 726.791 806.839C726.561 817.862 722.884 827.048 716.218 833.248C710.242 838.989 702.197 841.975 693.233 841.745C604.052 840.137 513.491 842.204 425.689 844.271C360.641 845.879 293.066 847.486 226.409 847.486ZM459.247 35.9132C451.662 35.9132 443.617 37.7504 436.262 41.1951C403.393 54.9739 367.537 63.0116 332.6 70.8196C287.319 80.9241 240.43 91.2582 200.436 114.682C146.192 146.373 115.622 200.57 85.9712 253.159C74.4787 273.368 62.7564 294.266 49.8849 313.327C38.3924 328.943 34.0253 347.774 38.6222 362.701C67.1236 454.101 98.1532 546.648 128.264 635.981C148.26 695.689 168.947 757.235 188.714 818.091C194 834.396 209.17 845.419 226.179 845.419C292.606 845.419 360.411 843.812 425.689 842.204C513.491 840.137 604.052 838.071 693.233 839.678C701.738 839.908 709.093 837.152 714.609 831.87C720.815 825.899 724.263 817.402 724.493 807.068C724.493 796.964 724.493 786.63 724.723 776.296C724.723 700.053 724.723 621.054 766.325 553.078C780.576 529.884 796.206 508.068 811.376 486.711C838.728 448.359 864.701 412.305 883.549 367.983C889.525 352.597 883.778 334.684 869.758 324.58C822.868 290.362 775.289 255.686 729.32 221.927C649.332 163.138 566.586 102.511 484.53 43.7212C477.635 38.4393 468.67 35.9132 459.247 35.9132Z" fill="white"/>
<path d="M250.084 811.202C231.926 811.202 215.836 799.49 210.32 782.266C187.565 711.994 162.971 641.033 139.066 572.369C115.162 503.245 90.3383 431.825 67.3534 361.094C62.2967 345.478 65.7444 324.12 76.0876 305.749C82.5234 293.577 88.7294 280.947 94.7054 268.546C122.517 211.593 151.019 152.804 208.481 120.423C249.394 97.229 298.812 89.8803 346.391 82.7613C374.202 78.6276 403.163 74.2643 429.596 66.9156C448.444 60.7152 468.67 63.0116 482.232 72.8865C535.097 111.467 588.422 151.196 640.138 189.547C702.887 236.166 767.475 284.162 831.832 330.78C846.773 341.574 851.829 360.175 844.014 375.102C824.707 407.253 799.194 432.973 774.37 458.005C754.603 477.984 734.146 498.652 716.908 522.535C672.317 584.54 678.063 662.161 683.809 737.026C684.269 742.997 684.729 748.968 685.189 754.709C686.108 767.11 682.89 777.673 676.454 784.563C670.938 790.074 663.353 792.83 654.619 792.371C580.837 789.845 506.596 795.815 434.883 801.786C374.432 806.15 312.143 811.202 250.084 811.202ZM450.742 65.5377C444.077 65.5377 436.951 66.686 430.286 68.7528C403.853 76.3312 374.892 80.4648 346.85 84.8281C299.501 91.9472 250.313 99.2959 209.86 122.261C153.087 154.411 124.586 212.742 97.0039 269.464C91.0279 281.865 84.8219 294.496 78.3861 306.667C68.2728 324.58 65.0549 345.248 69.8817 360.405C92.8667 431.136 117.461 502.556 141.365 571.68C165.039 640.344 189.633 711.305 212.618 781.807C217.905 798.112 233.075 809.135 250.084 809.135C311.913 809.135 374.432 804.083 434.653 799.26C506.596 793.519 580.837 787.319 654.848 789.845C662.893 790.304 669.789 787.778 674.845 782.726C681.051 776.525 683.809 766.421 683.12 754.709C682.66 748.968 682.201 742.997 681.741 737.026C676.224 665.146 670.248 583.851 715.299 520.928C732.537 497.045 752.994 476.376 772.991 456.167C797.585 431.366 823.098 405.645 842.176 373.724C849.531 359.945 844.704 342.722 830.683 332.388C766.325 285.769 701.508 237.773 638.989 191.155C587.273 152.804 533.948 113.075 481.082 74.494C472.808 68.5232 462.005 65.5377 450.742 65.5377Z" fill="white"/>
<path d="M273.759 774.688C255.6 774.688 239.511 762.976 233.995 745.752C207.102 662.85 176.992 579.718 148.031 499.341C131.022 452.493 113.554 404.038 97.0044 356.271C91.2582 339.507 93.5566 316.542 102.751 296.563C105.969 289.444 108.957 282.325 112.174 274.976C136.538 218.483 162.052 159.923 219.054 129.38C259.508 107.563 309.155 103.2 356.964 99.0662C379.719 96.9994 401.325 95.1622 422.011 91.4879C442.238 87.3542 463.384 91.0286 477.405 101.592C496.253 116.06 515.33 130.298 534.178 144.766C617.613 208.378 704.037 274.287 791.15 336.521C798.735 341.803 803.561 349.611 804.711 357.649C805.86 364.768 804.021 371.657 799.424 377.628C778.967 401.282 753.914 419.883 730.01 437.796C708.404 453.871 685.878 470.635 667.031 491.074C619.222 542.285 627.956 617.38 635.771 683.518C636.231 687.652 636.691 691.785 637.15 695.689C638.989 709.468 636.231 720.721 629.565 727.84C624.509 733.352 617.153 735.878 608.649 735.418C549.348 733.811 491.886 744.604 436.032 754.938C383.627 764.583 329.612 774.688 273.759 774.688ZM438.101 91.9471C432.814 91.9471 427.528 92.4064 422.241 93.5547C401.555 97.229 379.719 99.0662 356.964 101.133C309.385 105.267 259.968 109.63 219.974 131.217C163.661 161.53 138.607 219.631 114.243 275.894C111.025 283.014 108.037 290.362 104.819 297.481C95.8551 317.001 93.7865 339.277 99.3029 355.582C116.082 403.349 133.55 451.804 150.329 498.652C179.29 579.029 209.401 662.161 236.293 745.293C241.58 761.598 256.75 772.621 273.759 772.621C329.382 772.621 383.397 762.517 435.802 752.872C491.656 742.537 549.348 731.744 608.879 733.352C616.694 733.811 623.359 731.514 627.956 726.462C634.162 719.802 636.461 709.009 634.852 696.149C634.392 692.015 633.932 688.111 633.473 683.977C625.658 617.38 616.694 541.596 665.192 489.696C684.269 469.257 706.795 452.493 728.401 436.188C752.305 418.276 777.129 399.904 797.355 376.25C801.493 370.968 803.102 364.538 802.182 358.108C801.033 350.759 796.436 343.64 789.541 338.588C702.428 276.124 616.004 210.445 532.569 146.603C513.721 132.135 494.874 117.897 475.796 103.429C465.913 95.8511 452.352 91.9471 438.101 91.9471Z" fill="white"/>
<path d="M297.433 738.404C279.275 738.404 263.185 726.692 257.669 709.468C228.018 618.069 193.081 527.358 159.523 439.633C148.491 410.697 136.998 381.073 125.965 351.448C119.07 333.306 120.449 306.438 128.724 287.377C130.562 282.784 132.631 277.961 134.47 273.139C154.926 223.076 178.141 166.353 230.777 141.321C270.081 122.49 317.2 120.194 362.94 118.127C380.638 117.208 397.188 116.519 413.277 114.682C434.423 111.926 456.719 117.438 471.429 129.15C560.151 199.881 651.861 273.139 747.938 340.655C754.833 345.478 758.97 352.367 759.43 359.486C759.89 366.146 756.902 372.576 751.385 377.628C731.388 393.474 708.863 406.334 687.028 418.505C663.813 431.595 640.138 445.144 619.452 462.138C569.804 503.475 577.619 569.154 584.515 626.795L585.204 633.455C587.273 647.693 584.745 659.865 578.309 667.213C573.482 672.495 566.816 675.251 558.772 674.792C511.653 675.94 468.901 691.326 427.758 706.253C386.844 721.64 344.322 737.026 297.433 738.404ZM424.08 116.519C420.632 116.519 417.184 116.749 413.737 117.208C397.647 118.816 380.868 119.734 363.4 120.653C318.119 122.72 271.23 125.016 232.156 143.618C180.44 168.19 157.455 224.454 136.998 274.287C134.929 279.11 133.091 283.702 131.252 288.525C122.977 307.126 121.828 333.306 128.494 350.759C139.526 380.154 151.019 410.008 162.052 438.944C195.61 526.669 230.317 617.38 260.197 709.009C265.484 725.314 280.654 736.337 297.663 736.337C344.092 734.959 386.385 719.573 427.298 704.875C468.671 689.948 511.653 674.332 559.231 673.184C566.587 673.414 572.792 671.117 577.16 666.295C583.366 659.405 585.664 648.152 583.595 634.374L582.906 627.714C576.01 569.383 567.966 503.015 618.762 460.99C639.449 443.767 663.583 430.217 686.798 416.898C708.404 404.727 730.929 391.866 750.696 376.25C755.753 371.657 758.281 365.916 758.051 360.175C757.591 353.745 753.914 347.544 747.478 343.181C651.171 275.665 559.461 202.407 470.969 131.446C458.098 121.801 441.089 116.519 424.08 116.519Z" fill="white"/>
<path d="M317.889 701.431C302.26 701.431 286.63 689.489 281.343 673.184C252.152 583.162 216.066 494.748 181.129 409.09C172.854 388.881 164.58 368.672 156.535 348.233C148.261 328.713 148.49 300.237 156.995 280.717L158.834 276.124C178.831 229.965 199.517 182.199 247.555 159.923C283.872 143.159 330.071 141.781 370.755 140.403C382.707 139.943 394.199 139.714 405.002 139.025C425.459 136.958 451.202 144.996 466.142 157.856L470.969 161.76C548.658 226.75 621.98 288.295 704.036 344.329C710.012 348.463 713.23 353.975 713.23 359.716C713 365.916 709.093 371.887 701.968 376.48C684.959 385.895 666.571 393.933 648.872 401.741C624.508 412.535 599.225 423.558 577.159 438.485C527.282 472.472 530.73 521.387 534.408 573.058C536.016 587.066 533.488 599.238 527.052 607.046C522.685 612.328 516.709 615.543 510.043 616.232C474.417 623.58 444.536 641.263 415.805 658.716C386.844 676.169 356.734 694.082 320.648 701.431C319.728 701.431 318.809 701.431 317.889 701.431ZM411.208 140.862C409.14 140.862 407.071 140.862 405.002 141.092C393.97 141.781 382.707 142.24 370.525 142.47C330.071 143.847 284.102 145.225 248.245 161.76C200.896 183.576 180.439 230.884 160.672 276.813L158.834 281.406C150.789 300.467 150.559 328.024 158.374 347.315C166.649 367.753 174.923 387.962 182.968 408.171C217.905 493.83 253.991 582.473 283.412 672.495C288.699 688.8 304.788 700.512 320.188 699.134C355.815 691.785 385.695 674.103 414.426 656.649C443.387 639.196 473.497 621.284 509.584 613.935C515.79 613.246 521.306 610.49 525.214 605.668C531.19 598.319 533.718 586.837 531.879 573.288C528.202 520.698 524.524 471.324 575.551 436.647C597.616 421.491 623.129 410.468 647.493 399.674C665.192 391.866 683.35 383.829 700.359 374.413C706.795 370.279 710.472 365.227 710.472 359.716C710.472 354.663 707.714 349.841 702.427 346.167C620.141 289.903 546.819 228.358 469.13 163.367L464.303 159.463C451.432 148.211 429.826 140.862 411.208 140.862Z" fill="white"/>
<path d="M333.519 661.472C321.567 661.472 309.844 651.597 305.018 636.67C279.275 557.442 245.717 479.821 213.308 404.956C205.263 386.355 196.988 367.294 188.944 348.233C179.29 324.58 178.601 298.859 187.565 277.961C236.293 180.361 299.501 170.027 397.877 164.516C418.793 163.138 445.685 172.783 461.545 187.021C469.36 193.911 477.175 200.8 484.99 207.689C542.222 258.212 596.237 305.749 659.216 346.856C664.042 350.071 666.341 354.204 666.111 358.567C665.651 364.538 660.595 370.05 651.631 374.184C638.529 379.695 625.658 384.518 613.246 389.111C549.118 412.994 493.954 433.662 490.046 517.713C490.736 541.137 482.461 559.509 469.13 563.642C443.847 575.354 424.08 593.956 405.002 611.868C385.695 629.781 365.928 648.612 339.955 660.553C337.656 661.242 335.588 661.472 333.519 661.472ZM401.784 166.583C400.405 166.583 399.026 166.583 397.877 166.812C300.421 172.324 237.672 182.658 189.633 278.88C181.129 299.319 181.589 324.12 191.012 347.315C199.057 366.146 207.332 385.436 215.376 404.038C247.785 479.132 281.343 556.523 307.316 635.981C312.603 652.286 326.624 662.161 339.035 658.257C364.319 646.545 384.086 627.944 403.163 610.031C422.471 592.119 442.238 573.288 468.211 561.346C480.623 557.442 488.438 539.989 487.518 517.483C491.426 431.825 547.279 410.927 612.096 386.814C624.508 382.221 637.38 377.399 650.481 371.887C658.526 368.213 663.353 363.16 663.583 358.338C663.813 354.664 661.744 351.219 657.837 348.693C594.858 307.586 540.843 259.819 483.381 209.297C475.566 202.407 467.751 195.518 459.936 188.629C445.226 175.539 421.551 166.583 401.784 166.583Z" fill="white"/>
<path d="M346.621 618.528C344.782 618.528 342.943 618.069 341.104 617.38C334.439 614.854 328.922 607.505 326.624 598.319C310.305 535.855 281.573 474.769 253.762 415.979C244.108 395.311 233.995 373.954 224.571 353.056C213.308 327.335 212.389 301.156 222.272 281.406C263.185 217.105 319.958 199.881 392.591 193.681C413.737 192.303 441.549 203.096 458.328 219.172C469.59 229.506 481.312 240.529 492.575 251.322C530.5 287.606 569.804 325.039 614.625 350.3C618.073 352.367 619.912 355.352 619.452 358.567C618.992 364.079 612.556 369.361 601.754 373.265C593.939 376.021 586.354 378.547 578.998 380.843C524.064 398.756 476.715 414.142 458.557 475.458C456.029 496.585 447.754 514.498 437.641 520.698C421.552 534.936 408.68 551.93 396.268 568.235C383.856 584.77 370.755 601.764 354.436 616.231C352.137 617.609 349.379 618.528 346.621 618.528ZM392.82 195.748C293.296 204.245 253.302 236.625 224.341 282.325C214.917 301.385 215.836 326.876 226.639 351.908C235.833 372.806 245.947 394.163 255.83 414.831C283.642 473.85 312.373 534.936 328.922 597.63C331.221 606.357 336.048 612.787 342.024 615.313C345.931 616.92 349.839 616.461 353.516 614.165C369.606 599.927 382.477 582.933 394.889 566.628C407.301 550.093 420.402 533.099 436.722 518.631C446.375 512.661 454.19 495.437 456.719 474.769C475.107 412.305 525.444 395.77 578.539 378.547C585.894 376.021 593.709 373.724 601.294 370.968C610.948 367.524 616.924 362.701 617.383 358.108C617.613 355.352 615.544 353.286 613.476 352.137C568.425 326.646 529.121 289.214 490.966 252.93C479.704 242.136 468.211 231.113 456.719 220.779C440.399 204.933 413.507 194.599 392.82 195.748Z" fill="white"/>
<path d="M359.033 573.747C358.343 573.747 357.653 573.747 356.964 573.517C350.758 572.139 345.471 565.02 341.564 553.078C320.648 488.548 292.146 425.395 264.564 364.538L264.105 363.39C257.899 350.3 245.717 317.001 263.185 293.118C298.582 256.834 334.439 238.462 390.982 227.439C416.725 224.683 438.101 240.069 456.719 253.619L457.178 254.078C464.074 260.508 470.969 266.938 477.865 273.368C507.285 300.926 537.625 329.632 570.724 353.285C574.172 355.582 575.78 358.338 575.321 361.094C574.631 365.916 567.966 370.509 555.784 374.643L552.796 375.791C511.423 390.259 464.533 406.564 444.537 447.9C434.193 467.65 425.689 481.199 419.023 488.088C408.68 500.489 400.865 514.727 393.51 528.736C385.925 542.744 378.11 557.212 367.537 569.613C365.009 572.139 362.021 573.747 359.033 573.747ZM391.211 229.965C335.128 240.988 299.731 259.13 264.794 294.725C248.245 317.461 260.197 349.611 266.173 362.471L266.633 363.62C294.215 424.706 322.716 487.629 343.863 552.39C347.31 563.183 352.367 570.072 357.424 571.221C360.182 571.91 363.17 570.761 365.698 568.006C376.041 555.605 383.856 541.367 391.211 527.358C398.796 513.35 406.611 498.882 417.184 486.481C423.85 479.591 432.125 466.042 442.238 446.752C462.695 404.497 510.044 387.962 551.876 373.494L554.864 372.346C569.804 367.294 572.563 362.931 573.022 360.634C573.252 358.797 572.103 356.96 569.345 355.123C536.017 331.469 505.676 302.763 476.256 274.976C469.36 268.546 462.695 262.116 455.799 255.685L455.339 255.456C436.032 241.677 416.035 226.98 391.211 229.965Z" fill="white"/>
<path d="M367.767 521.846C367.077 521.846 366.618 521.847 366.158 521.617C360.182 520.469 354.665 512.431 350.528 499.571C337.657 458.005 321.567 418.046 304.788 377.169L303.639 373.035C298.122 353.286 290.997 328.713 306.857 310.801C330.531 287.606 357.653 276.124 391.211 265.79C412.358 261.656 439.71 273.828 453.96 288.066L461.545 295.185C482.002 314.246 502.918 334.225 524.984 352.137C528.661 355.123 530.5 358.338 530.04 361.782C529.351 367.064 523.605 372.117 512.572 377.169C480.853 391.407 457.408 408.401 441.548 429.528C438.101 434.121 434.423 439.174 430.975 443.996C424.54 452.952 418.334 461.449 413.277 467.19C405.002 476.606 399.716 484.414 394.429 492.222C389.143 500.03 383.856 507.838 375.582 517.483C372.823 520.928 369.835 521.846 367.767 521.846ZM391.671 268.086C358.573 278.191 331.68 289.673 308.466 312.408C293.525 329.173 300.421 353.286 305.937 372.576L307.087 376.48C323.866 417.127 339.955 457.316 352.827 498.882C356.504 510.823 361.561 518.402 366.847 519.32C369.376 519.78 371.904 518.631 374.203 516.105C382.477 506.69 387.764 498.882 393.05 491.074C398.337 483.266 403.623 475.458 411.898 465.813C416.725 460.071 422.931 451.574 429.366 442.618C432.814 437.796 436.492 432.743 439.939 428.15C456.259 406.793 479.703 389.57 511.882 375.102C521.996 370.509 527.512 365.686 527.972 361.553C528.202 359.027 526.823 356.501 523.835 353.974C501.769 335.832 480.623 316.083 460.396 296.792L452.811 289.673C438.331 275.894 411.898 263.953 391.671 268.086Z" fill="white"/>
<path d="M378.34 469.487C377.42 469.487 376.271 469.257 375.352 469.028C369.146 466.961 363.629 458.693 359.952 445.833C353.746 424.476 350.068 412.764 341.794 388.881C333.059 363.849 336.047 339.047 349.149 328.713C363.859 317.001 371.904 312.408 390.292 305.06C407.99 297.941 433.044 307.356 447.065 320.676C462.465 335.373 469.13 341.573 480.393 351.448C484.76 355.352 486.829 359.486 486.599 363.62C486.369 369.59 482.002 375.791 473.038 382.451C459.017 393.014 452.351 398.985 441.089 412.534L439.48 414.601C429.596 426.773 418.333 440.551 409.599 447.211C404.772 451.115 401.095 454.101 397.647 456.856C394.199 459.842 390.522 462.827 385.695 466.502C383.396 468.568 380.868 469.487 378.34 469.487ZM391.211 307.126C373.053 314.475 365.008 318.838 350.528 330.321C336.737 341.344 336.737 367.524 343.862 387.962C352.367 412.075 356.044 423.787 362.25 445.144C365.698 457.316 370.755 465.124 376.041 466.731C378.799 467.65 381.558 466.961 384.316 464.664C389.143 460.76 392.82 457.775 396.268 455.019C399.716 452.034 403.393 449.048 408.22 445.374C416.725 438.714 427.757 425.165 437.641 412.994L439.25 410.927C450.512 397.148 457.178 391.177 471.659 380.384C479.703 374.183 484.07 368.442 484.3 363.39C484.53 359.716 482.691 356.271 478.784 353.056C467.521 343.181 461.086 336.981 445.456 322.283C432.124 309.423 407.99 300.237 391.211 307.126Z" fill="white"/>
<path d="M396.268 422.639C393.74 422.639 391.441 421.95 389.143 420.802C382.477 417.357 377.421 409.09 374.433 396.918C367.997 371.198 377.421 351.678 388.683 344.559C404.083 334.914 426.379 340.655 438.101 351.678C449.134 362.012 449.134 375.102 437.641 390.259C425.689 406.104 412.588 417.816 402.244 421.491C400.176 422.409 398.107 422.639 396.268 422.639ZM390.062 346.626C375.582 355.812 372.364 378.776 376.731 396.459C379.489 407.712 384.316 415.75 390.292 418.735C393.74 420.572 397.647 420.802 401.555 419.194C411.438 415.52 424.31 404.038 436.032 388.651C446.835 374.413 447.065 362.701 436.722 353.056C425.459 342.951 404.543 337.44 390.062 346.626Z" fill="white"/>
</svg>
