
<svg width="52" height="38" viewBox="0 0 52 38" fill="none" xmlns="http://www.w3.org/2000/svg">
<path d="M51.3787 18.7833L31.0229 0.0729494C30.9423 -0.00759957 30.8157 -0.0191067 30.7122 0.0269212C30.6086 0.0729492 30.5396 0.176512 30.5396 0.291582V8.97936L20.8392 0.0729494C20.7586 -0.00759957 20.632 -0.0191067 20.5285 0.0269212C20.4249 0.0729492 20.3559 0.176512 20.3559 0.291582V8.97936L10.667 0.0729494C10.5864 -0.00759957 10.4599 -0.0191067 10.3563 0.0269212C10.2527 0.0729492 10.1837 0.176512 10.1837 0.291582V8.97936L0.483294 0.0729494C0.402745 -0.00759957 0.276168 -0.0191067 0.172605 0.0269212C0.069042 0.0729492 0 0.176512 0 0.291582V37.7123C0 37.8274 0.069042 37.931 0.172605 37.977C0.207126 37.9885 0.253154 38 0.287675 38C0.356717 38 0.425759 37.977 0.483294 37.9194L10.1837 29.013V37.7123C10.1837 37.8274 10.2527 37.931 10.3563 37.977C10.3908 37.9885 10.4368 38 10.4714 38C10.5404 38 10.6094 37.977 10.667 37.9194L20.3674 29.013V37.7123C20.3674 37.8274 20.4364 37.931 20.54 37.977C20.5745 37.9885 20.6205 38 20.6551 38C20.7241 38 20.7931 37.977 20.8507 37.9194L30.5511 29.013V37.7123C30.5511 37.8274 30.6201 37.931 30.7237 37.977C30.7582 37.9885 30.8042 38 30.8387 38C30.9078 38 30.9768 37.977 31.0344 37.9194L51.3902 19.2091C51.4478 19.1515 51.4823 19.0825 51.4823 19.002C51.4823 18.9214 51.4478 18.8293 51.3787 18.7833ZM20.9427 0.935974L30.5511 9.76184V18.3345L20.9427 9.50868V0.935974ZM31.1149 10.2912L40.5852 18.9904L31.1149 27.6897V10.2912ZM20.9427 10.2912L30.413 18.9904L20.9427 27.6897V10.2912ZM10.759 0.935974L20.3674 9.76184V18.3345L10.759 9.50868V0.935974ZM20.2293 18.9904L10.759 27.6897V10.2912L20.2293 18.9904ZM0.586857 37.0449V0.935974L10.1952 9.76184V28.2191L0.586857 37.0449ZM10.759 37.0449V28.4722L20.3674 19.6463V28.2191L10.759 37.0449ZM20.9427 37.0449V28.4722L30.5511 19.6463V28.2191L20.9427 37.0449ZM31.1149 37.0449V28.4722L41.2065 19.1976C41.2641 19.14 41.2986 19.071 41.2986 18.9904C41.2986 18.9099 41.2641 18.8293 41.2065 18.7833L31.1149 9.50868V0.935974L50.7689 18.9904L31.1149 37.0449Z" fill="white"/>
</svg>
