
<svg width="468" height="1003" viewBox="0 0 468 1003" fill="none" xmlns="http://www.w3.org/2000/svg">
<path d="M446.689 436.709C446.689 420.208 447.246 403.708 449.477 388.088C453.753 356.627 466.951 328.687 479.591 301.626C483.123 293.926 486.841 286.226 490.187 278.306C509.891 233.425 518.813 196.244 502.455 149.603C495.763 130.903 487.77 113.302 480.149 96.3619C467.136 67.5413 454.682 40.4808 448.176 7.48014L450.035 7.04013C456.541 39.8208 468.809 66.8813 481.822 95.4819C489.629 112.422 497.622 130.023 504.314 148.943C521.044 196.464 511.935 234.085 492.045 279.626C488.699 287.326 484.982 295.246 481.264 302.946C468.624 329.787 455.611 357.727 451.336 388.748C447.804 414.928 448.548 443.529 449.291 471.249C449.477 482.03 449.849 493.47 449.849 504.03C449.849 515.47 449.663 527.35 449.477 538.791C449.105 561.451 448.548 584.992 449.849 607.652C451.708 641.093 460.259 670.793 469.181 702.474C471.412 710.394 473.828 718.314 475.873 726.454C493.347 791.356 480.706 845.257 467.322 902.458C460.073 933.699 452.451 965.819 449.849 1000.8L447.99 1000.58C450.592 965.379 458.214 933.259 465.649 902.018C479.033 845.257 491.674 791.576 474.2 727.335C471.97 719.194 469.739 711.054 467.508 703.354C458.4 671.673 449.849 641.753 447.99 607.872C446.689 584.992 447.246 561.451 447.618 538.791C447.804 527.35 447.99 515.69 447.99 504.03C447.99 493.25 447.618 482.03 447.432 471.249C447.061 459.809 446.689 448.149 446.689 436.709Z" fill="white"/>
<path d="M421.594 571.351C421.594 559.911 421.966 548.251 422.338 537.031C422.709 526.031 423.081 514.59 423.081 503.59C423.081 421.748 426.985 355.747 446.503 278.966C463.233 213.184 451.336 158.403 438.882 100.322C432.561 70.6214 425.869 40.0408 422.895 6.82013L424.754 6.60013C427.728 39.6008 434.234 70.1814 440.555 99.662C453.009 157.963 464.906 212.964 448.176 279.406C428.658 355.967 424.754 421.748 424.754 503.37C424.754 514.37 424.382 525.811 424.011 536.811C423.267 560.131 422.523 584.332 424.94 606.992C428.844 641.093 443.901 670.793 458.4 699.394C462.675 707.754 467.137 716.554 471.226 725.355C491.488 768.475 500.225 805.216 480.892 855.377C474.386 872.538 466.579 888.818 459.329 904.658C444.83 935.459 431.074 964.719 424.754 1000.36L422.895 999.92C429.401 963.839 443.157 934.579 457.656 903.558C465.092 887.938 472.713 871.658 479.219 854.497C498.18 805.216 489.443 768.915 469.553 726.455C465.464 717.874 461.002 709.074 456.727 700.714C442.042 671.893 426.799 642.193 422.895 607.432C422.152 595.552 421.594 583.452 421.594 571.351Z" fill="white"/>
<path d="M396.498 570.911C396.498 559.251 397.056 547.591 397.428 536.151C397.986 524.711 398.357 513.93 398.357 503.15C398.357 424.609 398.915 353.327 405.607 279.186C410.812 222.424 406.908 165.663 403.005 110.882C400.588 76.7815 398.171 41.5808 397.986 6.38013H399.844C400.03 41.5808 402.447 76.7815 404.863 110.882C408.581 165.663 412.485 222.424 407.28 279.406C400.588 353.547 400.03 424.609 400.03 503.15C400.03 513.71 399.659 524.711 399.101 536.151C398.171 559.911 397.056 584.552 400.402 606.772C405.793 642.413 426.426 671.234 446.131 698.954C452.079 707.314 458.213 715.894 463.79 724.475C480.334 749.995 488.513 768.915 491.301 787.396C494.461 808.956 490.186 830.297 477.546 854.717C468.437 872.318 457.841 888.598 447.618 904.218C428.099 934.139 409.882 962.519 400.216 1000.14L398.357 999.48C408.209 961.419 426.612 933.039 446.131 902.898C456.354 887.278 466.764 870.997 475.873 853.397C501.711 803.676 490.93 770.236 462.117 725.575C456.726 716.994 450.778 708.854 444.458 700.054C424.568 672.114 403.748 643.073 398.357 606.772C397.056 595.552 396.498 583.232 396.498 570.911Z" fill="white"/>
<path d="M371.59 571.791C371.59 559.911 372.148 548.031 372.705 536.151C373.263 524.49 373.821 513.49 373.821 502.71C373.821 392.268 373.821 282.046 373.821 171.603V5.94012H375.68V171.603C375.68 282.046 375.68 392.268 375.68 502.71C375.68 513.49 375.122 524.49 374.564 536.151C373.449 559.911 372.334 584.332 375.68 606.332C381.442 643.953 404.678 671.893 427.171 699.174C433.862 707.314 440.74 715.454 446.875 723.814C464.906 748.015 474.386 767.375 477.732 786.076C481.636 808.076 476.803 830.297 463.047 854.057C452.451 872.317 440.369 888.378 428.658 903.998C406.723 933.039 385.903 960.539 375.68 999.92L373.821 999.26C384.23 959.439 405.236 931.939 427.356 902.678C439.067 887.058 451.15 870.997 461.746 852.957C490.372 803.456 476.803 767.375 445.573 725.354C439.439 716.994 432.933 709.074 425.869 700.714C403.191 673.213 379.769 645.053 373.821 606.772C372.148 595.552 371.59 583.672 371.59 571.791Z" fill="white"/>
<path d="M347.425 578.392C347.425 561.231 349.098 543.631 350.771 526.471C351.514 518.11 352.258 510.41 352.815 502.49C357.649 435.389 357.277 366.527 351.142 278.966C346.681 213.624 347.425 146.743 348.168 81.8416C348.54 56.7611 348.726 30.8006 348.726 5.50012H350.585C350.585 30.8006 350.213 56.7611 350.027 81.8416C349.284 146.523 348.354 213.624 353.001 278.746C359.136 366.307 359.507 435.389 354.674 502.49C354.117 510.19 353.373 518.11 352.63 526.471C350.027 553.091 347.425 580.592 351.142 605.672C356.533 641.753 376.981 670.573 396.871 698.514C402.633 706.654 408.582 715.014 413.973 723.375C430.517 749.115 438.882 767.815 441.856 786.296C445.388 807.856 441.112 829.417 428.658 853.617C419.363 871.658 408.768 888.158 398.358 904.218C379.212 933.919 360.995 962.079 351.142 999.04L349.284 998.38C359.136 960.979 377.353 932.599 396.685 902.898C406.909 887.058 417.69 870.557 426.799 852.517C452.08 803.236 441.112 769.575 412.3 724.695C406.909 716.334 400.96 707.974 395.198 699.834C375.308 671.674 354.488 642.633 349.098 605.892C347.982 597.312 347.425 587.852 347.425 578.392Z" fill="white"/>
<path d="M322.329 139.923C322.329 117.042 322.887 94.3819 323.259 71.7214C323.816 49.721 324.188 27.0605 324.188 5.06009H326.047C326.047 27.0605 325.489 49.721 325.117 71.7214C323.63 140.583 322.143 211.864 334.784 278.526C350.212 359.267 355.789 421.748 339.431 502.93C338.501 507.77 337.386 512.83 336.271 517.67C330.136 546.491 323.816 576.411 326.233 605.452C329.021 639.553 344.45 669.693 359.135 698.734C363.41 706.874 367.686 715.454 371.589 723.814C392.037 767.375 401.146 804.336 382.557 853.837C375.865 871.877 367.872 888.818 360.25 905.098C346.123 935.459 332.739 964.059 326.233 998.82L324.374 998.38C331.066 963.399 344.45 934.579 358.763 903.998C366.385 887.718 374.378 870.777 381.07 852.737C399.287 804.116 390.364 767.595 370.102 724.694C366.199 716.334 361.923 707.974 357.648 699.834C342.777 670.573 327.162 640.433 324.374 605.672C321.957 576.191 328.278 546.051 334.412 517.01C335.527 511.95 336.457 507.11 337.572 502.27C353.93 421.528 348.168 359.267 332.925 278.966C324.374 234.085 322.329 187.004 322.329 139.923Z" fill="white"/>
<path d="M297.234 129.803C297.234 108.462 297.792 87.1217 298.35 66.0013C298.907 45.7609 299.465 24.8605 299.465 4.84009H301.324C301.324 24.8605 300.766 45.7609 300.209 66.0013C298.164 137.943 296.119 212.524 317.682 278.526C320.656 287.326 323.816 296.346 326.976 305.146C336.457 331.767 346.495 359.487 349.097 388.748C352.629 428.129 340.732 461.789 328.092 497.65L326.047 503.37C297.234 585.212 302.625 635.373 326.605 724.034C344.45 790.036 331.81 844.817 318.612 902.678C311.548 933.039 304.484 964.279 301.51 998.38L299.651 998.16C302.625 964.059 309.875 932.599 316.939 902.238C330.137 844.597 342.777 790.256 324.932 724.914C300.766 635.813 295.376 585.212 324.374 502.71L326.419 496.99C338.873 461.569 350.77 427.909 347.424 389.188C344.822 360.367 334.97 332.867 325.489 306.246C322.329 297.446 319.169 288.426 316.195 279.626C300.58 232.545 297.234 181.284 297.234 129.803Z" fill="white"/>
<path d="M272.14 125.403C272.14 104.722 272.884 84.0417 273.441 63.3613C273.999 43.7809 274.742 23.5405 274.742 4.40009H276.601C276.601 23.5405 276.044 43.7809 275.3 63.3613C272.884 137.283 270.467 213.844 299.094 278.306C302.997 287.326 307.459 296.346 311.734 305.146C324.56 331.547 337.944 358.827 342.22 389.188C347.796 428.129 331.066 462.229 314.708 495.01C313.221 497.87 311.92 500.73 310.433 503.59C272.512 581.252 275.858 638.013 284.223 724.255C289.799 781.236 285.524 837.777 281.434 892.338C278.832 926.659 276.23 962.299 276.044 997.72H274.185C274.371 962.079 276.973 926.659 279.575 892.118C283.665 837.557 287.755 781.236 282.364 724.475C273.813 637.793 270.653 580.592 308.76 502.49C310.061 499.63 311.548 496.77 313.035 493.91C329.022 461.349 345.752 427.689 340.175 389.408C335.9 359.487 322.701 332.427 309.875 306.026C305.6 297.226 301.138 288.206 297.235 279.186C276.601 232.545 272.14 179.304 272.14 125.403Z" fill="white"/>
<path d="M247.045 127.603C247.045 106.262 247.788 84.9217 248.532 63.5813C249.275 42.9009 250.019 23.3205 250.019 4.18008H251.878C251.878 23.5405 251.134 43.1209 250.391 63.8013C247.602 138.603 244.814 216.264 276.415 278.306C280.876 287.326 286.081 296.346 290.914 304.926C305.599 331.107 320.842 358.167 325.675 389.408C331.995 430.329 312.849 463.989 294.446 496.33C292.959 498.75 291.658 501.17 290.357 503.59L290.171 504.03C272.325 535.711 255.41 565.411 252.064 604.572C249.833 630.533 250.577 658.253 251.32 684.874C251.692 697.854 252.064 711.274 252.064 724.254C252.064 768.695 252.064 813.356 252.064 857.797C252.064 904.218 252.064 950.859 252.064 997.28H250.205C250.205 950.859 250.205 904.218 250.205 857.797C250.205 813.356 250.205 768.695 250.205 724.254C250.205 711.274 249.833 697.854 249.461 684.874C248.718 658.253 247.974 630.533 250.205 604.352C253.551 564.751 270.467 534.611 288.498 502.71L288.684 502.27C289.985 499.85 291.472 497.43 292.773 495.01C311.176 462.889 329.951 429.889 323.816 389.628C318.983 358.827 303.926 331.987 289.241 305.806C284.408 297.006 279.203 287.986 274.742 278.966C252.064 234.305 247.045 181.724 247.045 127.603Z" fill="white"/>
<path d="M225.11 997.28C225.296 962.079 227.526 926.879 229.571 892.558C232.917 837.557 236.263 780.796 231.802 724.255C224.738 636.693 222.322 579.272 260.243 502.05C261.544 499.41 262.845 496.77 264.146 494.13C280.319 461.349 297.048 427.689 291.286 388.968C286.825 359.267 273.627 332.207 260.986 306.246C256.525 297.226 252.064 287.986 247.974 278.746C220.277 216.044 225.296 148.283 230.129 82.7217C231.988 56.7612 234.032 30.1406 234.032 3.74008H235.891C235.891 30.1406 233.847 56.9812 231.988 82.9417C226.969 151.143 222.136 215.604 249.647 277.646C253.737 286.886 258.198 296.126 262.659 304.926C275.485 331.107 288.869 358.387 293.331 388.528C299.279 427.909 282.363 462.009 266.005 495.01C264.704 497.65 263.403 500.29 262.102 502.93C224.552 579.712 226.969 636.913 234.032 723.814C238.68 780.796 235.148 837.557 231.802 892.558C229.757 926.659 227.526 961.859 227.34 997.06L225.11 997.28Z" fill="white"/>
<path d="M200.573 996.62C203.175 963.839 208.938 933.039 214.515 903.338C225.482 844.597 235.892 789.156 221.207 724.035C201.317 635.593 197.227 582.352 226.04 500.95L227.527 496.77C240.353 460.689 252.436 426.809 248.532 387.208C245.744 358.827 235.892 331.767 226.597 305.586C223.251 296.566 219.905 287.106 216.931 277.646C195.74 212.744 206.15 155.323 217.117 94.6019C222.508 65.3413 227.899 34.9807 229.757 3.08005L231.616 3.30005C229.757 35.4207 224.181 65.7813 218.976 95.2619C208.009 155.543 197.785 212.524 218.79 276.986C221.764 286.226 225.296 295.686 228.456 304.706C237.936 331.107 247.789 358.167 250.577 386.988C254.481 427.029 242.398 461.349 229.572 497.65L228.084 501.83C199.458 582.572 203.547 635.373 223.437 723.375C238.308 788.936 227.713 844.817 216.745 903.778C211.169 933.479 205.406 964.059 202.804 996.84L200.573 996.62Z" fill="white"/>
<path d="M175.664 594.232C175.664 567.391 181.427 540.551 186.817 514.59C187.747 509.75 188.862 504.91 189.792 500.29C205.778 421.748 200.201 361.247 184.215 276.986C176.593 237.165 171.575 193.824 185.702 146.523C190.721 129.803 196.669 113.522 202.246 98.1219C213.585 66.8813 224.181 37.4007 229.014 2.86005L230.873 3.30005C226.226 38.0607 215.444 67.7613 204.105 99.002C198.528 114.622 192.58 130.683 187.561 147.403C173.619 194.044 178.638 237.165 186.074 276.546C202.06 361.247 207.823 421.968 191.65 500.95C190.721 505.79 189.606 510.41 188.676 515.25C182.542 544.071 176.222 573.991 177.709 603.472C179.568 638.013 192.766 669.473 205.406 700.054C208.566 707.754 211.912 715.454 214.886 723.374C238.494 783.876 236.449 819.076 225.668 853.617C219.905 872.317 212.842 890.138 205.964 907.518C194.81 935.679 183.471 964.719 177.895 996.84L176.036 996.4C181.612 963.839 193.137 934.799 204.291 906.638C211.169 889.258 218.232 871.437 223.809 852.957C238.308 805.876 230.501 768.915 213.028 724.474C210.053 716.774 206.707 708.854 203.547 701.374C190.721 670.793 177.523 639.113 175.664 604.132C175.664 600.392 175.664 597.312 175.664 594.232Z" fill="white"/>
<path d="M149.825 578.392C149.825 559.911 151.498 541.211 153.357 522.95C154.101 515.25 154.844 507.11 155.402 499.41C161.536 418.008 157.819 340.787 153.171 275.885C150.383 235.405 147.223 189.424 165.254 145.863C172.318 128.923 180.311 113.082 187.932 97.902C203.175 67.5413 217.86 38.7208 224.738 2.42004L226.597 2.86005C219.533 39.6008 204.848 68.4214 189.419 99.222C181.798 114.402 173.805 130.243 166.741 146.963C148.896 189.864 152.056 235.625 154.844 275.885C159.306 340.787 163.023 418.228 157.075 499.63C156.517 507.33 155.774 515.25 155.03 523.17C152.614 549.791 150.011 577.072 152.8 603.032C156.889 639.773 174.363 670.573 191.464 700.494C195.74 707.754 200.015 715.454 204.105 722.934C229.199 769.355 239.609 805.656 219.533 853.397C211.354 872.537 201.688 890.358 192.208 907.518C176.593 936.119 161.722 962.959 153.357 996.4L151.498 995.74C159.863 961.859 175.478 933.699 190.535 906.198C200.015 889.038 209.681 871.437 217.674 852.297C237.564 805.436 227.155 769.795 202.432 723.814C198.342 716.334 194.067 708.634 189.791 701.374C172.69 671.453 154.844 640.433 150.755 603.032C150.197 595.112 149.825 586.752 149.825 578.392Z" fill="white"/>
<path d="M124.731 568.271C124.731 556.391 125.103 544.511 125.474 532.851C125.846 521.63 126.218 509.97 126.218 498.97C126.218 428.569 126.218 358.827 126.218 275.446C126.218 268.845 126.218 262.465 126.032 256.085C125.474 217.364 125.103 180.624 141.461 145.643C149.454 128.483 158.562 113.082 167.485 98.122C185.144 68.4214 201.688 40.2608 208.938 1.98004L210.797 2.42005C203.547 40.9208 186.817 69.3014 169.158 99.222C160.421 114.182 151.313 129.583 143.32 146.523C127.147 181.064 127.519 217.364 128.077 255.865C128.077 262.245 128.263 268.845 128.263 275.226C128.263 358.607 128.263 428.569 128.263 498.75C128.263 509.75 127.891 521.41 127.519 532.851C126.776 556.171 125.846 580.152 128.263 602.592C132.538 641.313 152.614 671.453 171.76 700.714C176.408 707.754 181.241 715.014 185.888 722.495C213.957 767.595 226.597 804.996 203.919 853.177C194.625 872.978 183.285 890.578 172.318 907.518C154.473 935.239 137.743 961.419 128.449 995.96L126.59 995.3C135.884 960.319 153.543 932.819 170.645 906.198C181.612 889.258 192.766 871.658 202.06 852.077C224.367 804.996 211.726 768.035 184.215 723.815C179.568 716.554 174.735 709.294 170.087 702.034C150.569 672.554 130.493 642.193 126.218 602.812C125.103 591.592 124.731 579.932 124.731 568.271Z" fill="white"/>
<path d="M100.194 574.652C100.194 558.591 101.309 542.531 102.239 526.691C102.796 517.45 103.54 507.99 103.912 498.97C107.258 418.668 105.213 340.787 102.61 275.446L102.424 270.385C100.751 227.045 99.0785 185.904 116.18 145.643C123.244 129.143 131.051 113.522 138.673 98.562C154.287 67.7614 169.158 38.9408 176.036 1.98004L177.895 2.42005C170.831 39.8208 156.146 68.8614 140.346 99.662C132.724 114.622 124.917 130.023 117.853 146.523C101.123 186.344 102.61 227.045 104.283 270.165L104.469 275.226C107.072 340.787 109.116 418.668 105.77 498.97C105.399 507.99 104.655 517.67 104.097 526.911C102.424 551.991 100.751 577.952 103.354 602.372C107.443 639.773 125.289 670.573 142.39 700.494C146.48 707.534 150.755 714.794 154.659 722.055C180.311 769.135 190.535 803.896 171.203 852.517C163.582 871.878 154.287 890.138 145.179 907.738C131.237 935.019 116.924 963.179 108.745 995.52L106.886 994.86C115.251 962.299 129.564 933.919 143.506 906.638C152.428 889.038 161.723 870.997 169.344 851.637C188.305 803.896 178.267 769.576 152.986 723.155C149.082 715.894 144.807 708.634 140.717 701.594C123.43 671.453 105.399 640.213 101.309 602.372C100.566 593.352 100.194 583.892 100.194 574.652Z" fill="white"/>
<path d="M76.5855 588.512C76.5855 565.631 79.7456 542.091 82.7198 519.43C83.6493 512.61 84.5787 505.57 85.3223 498.75C94.4308 422.849 90.5271 354.427 81.6045 275.226C76.9573 233.645 73.6113 189.424 87.5529 144.983C92.5719 128.923 98.3344 113.522 103.725 98.562C115.436 66.8813 126.589 36.7407 131.237 1.32004L133.095 1.76005C128.448 37.6208 117.295 67.7614 105.584 99.662C100.007 114.622 94.4308 129.803 89.4118 145.863C75.6561 189.864 79.0021 233.865 83.6493 275.006C92.386 354.427 96.4755 423.069 87.367 499.19C86.6235 506.01 85.6941 513.05 84.7646 519.87C81.2327 546.931 77.515 574.872 79.0021 601.932C81.0468 637.793 94.6166 669.693 107.629 700.714C110.417 707.534 113.577 714.574 116.366 721.614C133.095 763.195 142.018 801.256 130.679 851.857C126.403 870.998 121.199 889.698 115.994 907.958C108.186 935.899 100.007 964.939 95.732 995.08L93.8731 994.64C98.1485 964.279 106.328 935.239 114.321 907.078C119.526 888.818 124.73 870.118 129.006 850.977C140.159 801.036 131.794 764.735 114.693 722.275C111.904 715.234 108.93 708.194 105.956 701.374C92.7578 670.134 79.188 638.013 77.1432 601.712C76.5855 597.532 76.5855 592.912 76.5855 588.512Z" fill="white"/>
<path d="M55.5803 214.944C55.5803 176.004 62.0864 139.263 68.7784 100.982C74.355 68.8614 80.1175 35.8607 81.9764 0.880005L83.8353 1.10001C81.9764 36.3007 76.2139 69.5214 70.4514 101.642C60.4134 158.843 50.9331 212.744 62.8299 274.785C77.3292 350.467 86.9954 415.148 69.336 499.41C52.9779 577.072 54.2791 635.153 74.5409 721.174C89.5978 785.416 87.553 853.177 85.3224 918.738C84.5788 943.599 83.6494 969.339 83.8353 994.42H81.9764C81.7905 969.339 82.72 943.379 83.4635 918.518C85.5083 853.177 87.7389 785.636 72.682 721.615C52.4202 635.153 50.9331 576.852 67.4771 498.75C85.1365 414.928 75.4703 350.467 60.9711 275.005C57.2533 254.325 55.5803 234.525 55.5803 214.944Z" fill="white"/>
<path d="M28.6267 175.123C28.6267 146.523 30.6715 118.142 32.5303 90.2018C34.5751 60.9412 36.6198 30.8006 36.6198 0.880005H38.4787C38.6646 31.0206 36.434 61.1612 34.3892 90.4218C30.1138 150.923 25.6525 213.624 41.8247 275.005C44.4272 285.126 47.4014 295.466 50.3756 305.366C57.997 331.327 65.8042 358.167 68.4067 385.888C72.3103 426.809 61.9006 462.449 50.9332 500.29C13.7556 627.893 34.761 760.555 55.2086 889.038C60.7853 923.799 66.3619 959.659 70.8232 994.64L68.9644 994.86C64.5031 959.879 58.9264 924.019 53.3497 889.478C32.9021 760.775 11.8968 627.893 49.2602 499.63C60.2276 462.229 70.4514 426.809 66.7337 386.328C64.1313 358.827 56.3239 332.207 48.7025 306.466C45.7283 296.566 42.7542 286.226 40.1517 276.105C31.415 242.005 28.6267 208.564 28.6267 175.123Z" fill="white"/>
<path d="M-4.57764e-05 134.203C-4.57764e-05 111.542 0.743473 88.8818 1.30114 66.2213C2.04469 43.3409 2.60238 21.5604 2.60238 0H4.46125C4.46125 21.5604 3.90356 43.3409 3.16002 66.2213C0.929359 136.843 -1.11539 209.884 18.2169 274.125C21.1911 284.246 24.7231 294.586 28.069 304.486C36.8058 330.447 45.9142 357.067 48.8884 385.228C53.3497 427.909 41.0811 464.209 29.1843 499.41C4.46123 572.232 4.46127 637.793 4.64715 713.694V720.294C4.64715 729.315 4.46125 738.335 4.46125 747.135C3.90359 781.236 3.34595 816.436 11.3391 849.217C16.1722 869.017 22.4924 888.378 28.6267 906.858C37.7352 934.359 47.0296 962.739 51.6768 993.1L49.8179 993.54C45.1707 963.399 35.8763 935.019 26.9537 907.738C20.8194 889.038 14.4992 869.677 9.48025 849.877C1.30118 816.656 1.85881 781.236 2.41647 747.135C2.60236 738.335 2.78826 729.095 2.60238 720.294V713.694C2.41648 637.573 2.41647 572.011 27.3254 498.53C39.2223 463.549 51.4909 427.469 47.0296 385.448C44.0554 357.507 35.1327 330.887 26.396 305.146C23.05 295.246 19.5182 284.906 16.544 274.786C3.16004 231.005 -4.57764e-05 182.824 -4.57764e-05 134.203Z" fill="white"/>
</svg>
