
<svg width="586" height="577" viewBox="0 0 586 577" fill="none" xmlns="http://www.w3.org/2000/svg">
<path d="M5.08515 577C-15.3344 577 -35.7539 576.847 -56.5285 576.54C-76.7704 576.387 -97.7226 576.081 -118.497 576.081H-119.385V575.315C-117.609 538.083 -110.507 501.004 -103.405 465.151C-99.1431 443.394 -94.8816 421.024 -91.6855 398.654C-85.826 356.366 -89.3772 314.691 -103.582 259.685C-123.469 183.076 -121.693 102.943 -120.095 25.2616C-119.74 4.4239 -119.207 -17.0266 -119.207 -38.0175V-38.7836H-118.32C-95.0592 -38.7836 -71.266 -39.09 -48.1831 -39.3965C43.4383 -40.6222 138.078 -41.848 228.812 -22.8489C277.641 -12.5833 325.583 -3.69666 377.075 -8.75286C407.616 -11.8172 437.979 -17.3331 467.276 -22.8489C505.274 -29.897 544.515 -37.0982 584.644 -38.7836H585.532V-38.0175C584.466 -8.2932 578.607 21.2779 573.102 49.7765C569.018 70.7673 564.757 92.5243 562.449 114.281C557.299 161.166 564.935 208.664 572.215 254.476L572.925 259.379C586.952 347.326 586.419 437.112 585.709 523.833C585.532 540.687 585.532 558.154 585.532 575.315V576.081H584.644C548.599 573.936 515.573 563.67 483.612 553.711C458.221 545.897 432.119 537.776 404.597 533.639C352.217 525.825 300.546 539.002 250.474 551.719L243.549 553.404C164.357 573.629 86.0529 577 5.08515 577ZM-117.609 574.549C-97.1899 574.549 -76.4153 574.702 -56.5285 575.008C46.6344 576.081 144.115 577.153 242.662 552.179L249.587 550.493C299.836 537.776 351.684 524.599 404.42 532.414C432.119 536.55 458.398 544.671 483.789 552.485C515.395 562.291 548.066 572.403 583.401 574.702C583.401 557.848 583.578 540.687 583.578 524.14C584.111 437.418 584.821 347.786 570.794 259.839L570.084 254.936C562.804 208.97 555.169 161.626 560.318 114.434C562.626 92.6775 566.888 70.9206 570.972 49.7765C576.476 21.5843 582.158 -7.52711 583.401 -36.945C543.805 -35.2596 504.919 -28.0583 467.276 -21.0103C437.801 -15.6477 407.438 -9.97861 376.898 -6.91425C325.227 -1.85805 276.931 -10.5915 228.102 -21.0103C137.546 -40.1626 42.9056 -38.7836 -48.5382 -37.5579C-71.266 -37.2514 -94.7041 -36.945 -117.787 -36.945C-117.787 -16.2605 -118.32 5.03678 -118.675 25.568C-120.273 103.096 -121.871 183.229 -102.162 259.685C-87.7792 314.997 -84.228 356.672 -90.265 399.114C-93.4611 421.484 -97.7226 443.853 -101.984 465.61C-108.731 501.004 -115.834 537.776 -117.609 574.549Z" fill="white"/>
<path d="M347.6 31.85C306.406 31.85 267.52 24.3423 230.943 16.375C145.891 -2.01119 58.3536 0.287083 -26.1654 2.43214C-56.3508 3.19823 -87.6015 3.96431 -118.497 3.81109V2.27891C-87.6015 2.43213 -56.3508 1.66605 -26.1654 0.899955C58.5311 -1.2451 146.069 -3.54337 231.298 14.996C276.753 24.802 325.583 33.9951 377.963 28.9389C407.971 26.0277 437.801 20.6651 466.744 15.6089C504.031 9.02051 542.562 2.1257 581.803 0.440296V1.97248C542.74 3.65788 504.209 10.5527 467.099 17.1411C438.156 22.3505 408.326 27.5599 378.141 30.471C367.842 31.3904 357.721 31.85 347.6 31.85Z" fill="white"/>
<path d="M352.039 64.7919C311.378 64.7919 272.847 57.5906 236.98 49.4701C153.349 30.6243 72.3809 35.374 -13.2035 40.277C-47.6503 42.2688 -83.1625 44.4139 -118.497 44.7203V43.1881C-83.1625 42.8817 -47.6503 40.7367 -13.2035 38.7448C72.5585 33.6886 153.526 29.0921 237.513 47.9379C281.193 57.7439 328.779 66.3241 379.561 62.034C408.681 59.5825 437.801 54.6795 466.033 50.083C501.546 44.1075 538.301 38.1319 575.411 36.5998V38.1319C538.301 39.5109 501.723 45.6396 466.211 51.4619C437.979 56.2117 408.859 60.9614 379.561 63.4129C370.328 64.3322 361.095 64.7919 352.039 64.7919Z" fill="white"/>
<path d="M356.656 96.3549C314.751 96.3549 276.753 88.8472 244.26 81.1863C160.274 61.2679 80.1935 69.0821 -4.50299 77.2026C-41.6132 80.7266 -79.9664 84.5571 -118.497 85.6296V84.0974C-79.9664 83.0249 -41.7908 79.1944 -4.68055 75.6704C80.3711 67.3967 160.629 59.7357 244.793 79.6541C283.501 88.8472 330.022 97.7338 381.337 93.9034C409.036 91.9116 436.913 87.6215 463.725 83.6378C497.639 78.5816 532.619 73.2189 568.131 72.1464V73.6786C532.796 74.7511 497.817 79.9605 464.08 85.0167C437.091 89.0004 409.391 93.2905 381.514 95.2823C373.169 96.0484 364.824 96.3549 356.656 96.3549Z" fill="white"/>
<path d="M360.385 129.297C326.115 129.297 291.136 124.394 250.474 114.281C166.488 93.1371 86.5858 103.556 2.06678 114.434C-36.9966 119.491 -77.4805 124.7 -118.32 126.539L-118.497 125.006C-77.8356 123.168 -37.3517 117.958 1.71165 112.902C86.4082 101.87 166.488 91.6049 251.007 112.749C302.145 125.619 344.404 129.909 387.551 126.692C412.41 124.853 437.446 121.482 461.594 118.265C494.266 113.822 528.002 109.378 562.094 108.459V109.991C528.18 110.757 494.443 115.354 461.772 119.797C437.624 123.015 412.588 126.385 387.551 128.224C378.496 128.837 369.44 129.297 360.385 129.297Z" fill="white"/>
<path d="M-118.497 167.295V165.763C-75.5273 164.077 -33.0903 157.948 8.10383 151.973C91.2023 140.022 169.862 128.684 253.493 150.288C325.228 168.827 391.28 162.085 461.239 154.884C492.845 151.667 525.694 148.296 559.253 147.376V148.909C525.694 149.828 493.023 153.199 461.239 156.416C391.103 163.618 324.695 170.359 252.605 151.82C169.329 130.369 91.0248 141.554 7.92627 153.505C-32.9127 159.481 -75.3498 165.609 -118.497 167.295Z" fill="white"/>
<path d="M-115.124 206.365L-115.301 204.833C-71.0886 202.841 -26.5208 197.172 16.4489 191.81C42.7279 188.592 69.8947 185.068 96.7064 182.617C148.377 177.714 198.449 182.157 249.231 187.52C349.908 198.245 450.408 195.18 561.916 190.431V191.963C450.408 196.713 349.731 199.93 248.876 189.052C198.094 183.689 148.199 179.093 96.7064 184.149C69.8947 186.753 42.7279 190.124 16.4489 193.342C-26.3433 198.704 -70.7335 204.22 -115.124 206.365Z" fill="white"/>
<path d="M-107.488 242.678V241.146C-66.6493 240.073 -25.4551 237.162 14.4961 234.251C38.9995 232.566 64.2131 230.727 89.2492 229.348C103.632 228.582 118.014 227.969 131.864 227.51C168.619 226.131 203.421 224.905 239.466 219.389C292.024 211.575 335.704 209.43 377.075 212.801C404.42 214.946 431.587 219.389 457.866 223.526C493.733 229.195 530.666 235.017 568.131 235.63V237.162C530.488 236.549 493.378 230.727 457.51 225.058C431.231 220.921 404.065 216.631 376.898 214.333C335.704 210.962 292.024 213.107 239.643 220.921C203.421 226.284 167.021 227.663 131.686 229.042C117.837 229.501 103.454 230.114 89.0716 230.88C64.2131 232.259 38.8219 234.098 14.4961 235.783C-25.2776 238.694 -66.6493 241.759 -107.488 242.678Z" fill="white"/>
<path d="M575.588 283.434C532.973 279.297 493.377 266.274 455.024 253.71C427.147 244.517 398.205 235.017 368.375 228.889C317.947 218.776 277.641 229.961 228.989 251.258C149.264 286.192 56.7551 282.975 -32.7355 279.91C-54.2204 279.144 -76.5931 278.378 -97.9004 278.225V276.693C-76.4155 276.846 -54.2204 277.612 -32.7355 278.378C56.5776 281.442 148.909 284.66 228.279 249.879C277.286 228.429 317.947 217.244 368.907 227.51C398.915 233.485 427.857 243.138 455.734 252.331C493.91 264.895 533.506 277.918 575.943 282.055L575.588 283.434Z" fill="white"/>
<path d="M581.625 328.94C534.217 322.045 492.49 302.74 452.183 284.047C423.063 270.564 392.878 256.621 360.562 247.428C302.5 230.727 263.791 252.791 219.401 283.281C173.768 314.537 138.611 329.706 72.7359 325.722C51.4286 324.497 29.9437 322.658 9.16911 321.126C-23.5021 318.521 -57.2387 315.916 -90.6201 314.691V313.159C-57.2387 314.231 -23.5021 316.989 9.16911 319.594C29.9437 321.279 51.4286 322.964 72.7359 324.19C137.901 328.174 172.88 313.158 218.158 282.055C263.081 251.258 302.145 229.042 361.095 246.049C393.411 255.395 423.774 269.338 452.894 282.821C493.023 301.361 534.749 320.513 581.803 327.561L581.625 328.94Z" fill="white"/>
<path d="M584.289 371.688C533.861 364.946 491.424 342.27 450.408 320.207C420.755 304.272 390.215 287.877 356.833 277.459C296.285 258.613 258.464 284.507 215.495 320.207C169.684 358.205 136.125 375.365 68.8294 369.543C48.4099 367.704 27.9904 365.099 8.10361 362.495C-22.9696 358.511 -54.9305 354.374 -87.2466 353.455V351.923C-54.9305 352.689 -22.792 356.979 8.28117 360.963C27.9904 363.567 48.4099 366.172 68.8294 368.011C135.415 373.833 168.796 356.826 214.074 319.134C257.577 282.974 295.752 256.774 357.188 276.08C390.747 286.499 421.465 303.046 451.118 318.828C492.135 340.738 534.394 363.414 584.289 370.156V371.688Z" fill="white"/>
<path d="M584.289 412.597C535.637 405.855 494.265 384.711 454.137 364.18C425.194 349.471 395.186 334.149 362.515 324.19C303.92 306.417 265.745 329.553 218.158 364.027C169.329 399.42 134.35 415.508 68.4744 410.452C47.6998 408.92 26.7476 406.468 6.5057 404.323C-25.2777 400.799 -57.9489 397.275 -90.6201 396.203V394.67C-57.7714 395.59 -24.9226 399.267 6.68326 402.791C26.9252 405.089 47.8774 407.388 68.4744 408.92C133.817 413.976 168.264 398.041 216.738 362.954C264.679 328.174 303.387 304.885 362.693 322.811C395.364 332.77 425.549 348.092 454.492 362.801C494.443 383.179 535.815 404.17 583.934 410.912L584.289 412.597Z" fill="white"/>
<path d="M584.289 453.506C539.011 448.297 499.77 430.064 461.772 412.291C434.25 399.42 405.84 386.244 375.122 377.97C318.658 362.648 277.463 382.566 225.083 412.137C174.656 440.789 134.527 455.651 67.5865 451.974C45.9241 450.748 24.0841 449.063 2.95434 447.531C-30.072 444.926 -64.3412 442.321 -98.2554 441.709V440.176C-64.3412 440.789 -30.072 443.547 3.1319 445.999C24.2616 447.684 46.1016 449.369 67.5865 450.442C134.172 453.966 173.945 439.257 224.018 410.912C276.753 381.034 318.302 361.116 375.477 376.591C406.373 385.018 434.96 398.195 462.482 411.065C500.302 428.685 539.366 446.765 584.289 452.127V453.506Z" fill="white"/>
<path d="M584.466 494.415C542.917 491.045 506.339 476.182 471.005 461.627C443.838 450.442 415.606 438.95 385.243 432.668C329.311 421.177 278.351 442.628 233.428 461.627C175.011 486.295 129.555 495.335 71.3152 493.802C47.1669 493.19 22.6635 492.117 -1.12962 491.198C-35.9316 489.666 -71.9764 488.133 -107.311 487.98V486.448C-71.7989 486.601 -35.754 488.133 -0.952065 489.666C22.8411 490.738 47.3445 491.657 71.4928 492.27C129.378 493.802 174.478 484.763 232.718 460.248C277.819 441.249 329.134 419.645 385.598 431.136C416.138 437.418 444.371 449.063 471.715 460.248C506.872 474.65 543.272 489.666 584.466 492.883V494.415Z" fill="white"/>
<path d="M584.466 535.325C546.468 533.333 512.554 521.382 479.528 509.737C453.604 500.697 426.792 491.198 398.027 486.601C342.451 477.715 288.117 494.722 240.176 509.584C181.225 527.97 130.265 535.631 70.2498 535.171C45.5689 535.018 20.3552 534.559 -3.79304 534.252C-40.3706 533.639 -78.0135 533.18 -115.301 533.18V531.647C-78.191 531.494 -40.3706 532.107 -3.79304 532.72C20.5328 533.026 45.5689 533.486 70.2498 533.639C130.088 534.099 180.693 526.438 239.465 508.205C287.584 493.19 342.096 476.336 398.205 485.222C426.97 489.819 453.959 499.318 480.06 508.358C512.909 519.85 546.823 531.801 584.466 533.793V535.325Z" fill="white"/>
<path d="M540.609 570.565H538.833C539.898 456.571 534.749 350.39 523.563 255.242C523.03 251.258 522.675 247.275 522.142 243.291C517.348 203.148 512.376 161.472 515.928 120.41C517.881 97.2741 521.61 73.9849 525.338 51.4618C529.777 23.4229 534.572 -5.5353 535.814 -34.4935H537.59C536.347 -5.5353 531.553 23.4229 527.114 51.6151C523.563 74.1381 519.656 97.4273 517.703 120.41C514.152 161.319 519.124 202.841 523.918 242.985C524.451 246.968 524.806 250.952 525.338 254.936C536.525 350.237 541.674 456.417 540.609 570.565Z" fill="white"/>
<path d="M497.106 559.38C496.219 522.148 491.602 484.763 486.985 448.45C484.145 426.387 481.304 403.404 479.173 380.881C476.332 348.858 476.154 316.223 475.799 284.507C475.622 271.483 475.622 257.847 475.266 244.67C474.024 189.818 477.575 134.813 480.948 81.6459C483.257 46.2525 485.565 9.78655 486.453 -26.3729H488.228C487.341 9.78655 484.855 46.4057 482.724 81.6459C479.35 134.813 475.799 189.818 477.042 244.67C477.397 258 477.397 271.483 477.575 284.507C477.752 316.07 478.107 348.858 480.948 380.728C482.902 403.251 485.92 426.233 488.584 448.297C493.2 484.609 497.994 522.148 498.882 559.38H497.106Z" fill="white"/>
<path d="M456.09 546.05C453.604 506.826 446.501 467.756 439.577 430.217C427.857 366.172 415.606 299.828 426.97 232.106C438.334 163.311 437.978 91.4518 437.446 21.8908C437.268 8.86725 437.268 -4.15629 437.268 -17.0266H439.044C439.044 -4.15629 439.221 8.86725 439.221 21.8908C439.754 91.4518 440.287 163.464 428.745 232.412C417.559 299.982 429.633 366.019 441.352 430.064C448.277 467.756 455.379 506.826 457.865 546.05H456.09Z" fill="white"/>
<path d="M414.185 535.018C410.279 492.424 399.448 450.135 388.794 409.379C381.159 379.655 373.169 349.011 368.02 318.215C361.45 279.144 364.468 251.105 378.673 221.381C402.821 170.972 397.317 109.991 391.99 51.0022C390.037 29.8581 388.262 9.93976 387.906 -9.36572H389.682C390.037 9.78654 391.813 29.7049 393.766 50.849C399.093 109.991 404.42 171.278 380.271 221.994C366.244 251.412 363.225 279.297 369.618 317.908C374.767 348.552 382.757 379.195 390.392 408.92C401.046 449.829 411.877 491.964 415.783 534.712L414.185 535.018Z" fill="white"/>
<path d="M369.44 530.422C365.711 486.295 353.104 443.087 341.03 401.106C332.152 370.768 323.097 339.359 317.415 307.796C311.023 271.943 311.2 246.968 331.264 217.244C360.562 173.73 352.749 111.83 345.824 56.9778C342.983 34.6079 340.32 13.4638 340.143 -5.84167H341.918C342.273 13.4638 344.937 34.4547 347.6 56.8245C354.525 111.83 362.338 174.036 332.685 218.01C312.798 247.428 312.621 272.249 319.013 307.643C324.695 339.206 333.75 370.462 342.628 400.952C354.703 442.934 367.309 486.295 371.038 530.422H369.44Z" fill="white"/>
<path d="M320.433 535.171C316.527 492.577 305.695 450.442 295.219 409.686C287.584 379.961 279.594 349.318 274.445 318.674C268.408 282.821 268.585 254.016 288.472 221.074C316.882 173.73 308.892 116.273 301.256 60.8081C297.883 36.2932 294.687 13.1573 294.332 -9.05933H296.107C296.285 13.0041 299.481 36.14 303.032 60.6549C310.845 116.426 318.835 174.19 290.07 221.84C270.361 254.476 270.183 283.128 276.22 318.521C281.37 349.165 289.36 379.808 296.995 409.533C307.471 450.289 318.48 492.577 322.386 535.325L320.433 535.171Z" fill="white"/>
<path d="M268.586 546.203C266.455 511.729 258.997 476.336 251.717 442.168C236.802 371.841 221.532 299.216 251.007 229.961C275.155 173.27 266.988 119.644 258.465 62.8C254.558 36.9062 250.474 10.093 249.764 -17.0266H251.54C252.25 10.093 256.334 36.753 260.24 62.6468C268.941 119.644 277.109 173.577 252.783 230.574C223.485 299.522 238.755 371.994 253.493 442.015C260.773 476.336 268.23 511.729 270.361 546.356L268.586 546.203Z" fill="white"/>
<path d="M215.672 559.533C214.962 525.212 211.233 491.351 207.504 458.409C199.337 384.405 191.524 314.384 215.317 240.533C227.746 201.616 238.4 159.327 232.185 114.128C229.344 93.9033 224.55 73.8317 219.756 54.5262C213.364 28.3259 206.794 1.35955 205.374 -26.3729H207.149C208.57 1.20634 215.139 28.1727 221.532 54.373C226.326 73.8317 231.12 93.9033 233.961 114.128C240.176 159.634 229.522 202.075 217.093 241.146C193.477 314.691 201.29 384.558 209.458 458.562C213.009 491.504 216.915 525.519 217.625 559.84L215.672 559.533Z" fill="white"/>
<path d="M165.778 570.718H164.002C164.357 540.687 163.292 510.657 162.404 481.698C159.918 402.485 157.432 327.714 178.029 249.42L178.562 247.121C190.281 202.535 202.533 156.263 195.43 109.991C192.057 88.2342 185.487 66.9369 179.095 46.4057C171.104 20.5118 162.759 -6.30137 160.806 -34.4935L162.582 -34.6467C164.535 -6.76103 172.703 20.0521 180.693 45.946C187.085 66.6305 193.655 87.9278 197.028 109.838C204.308 156.416 192.057 202.688 180.16 247.428L179.627 249.726C159.03 327.867 161.339 402.485 164.002 481.545C165.067 510.657 165.955 540.687 165.778 570.718Z" fill="white"/>
<path d="M116.771 575.315H114.995C114.995 559.227 114.818 542.832 114.818 527.051C114.108 432.975 113.575 344.262 135.237 253.097C136.303 248.347 137.546 243.597 138.611 238.848C149.442 194.261 160.629 148.142 152.106 102.79C148.199 82.4119 141.452 62.4935 134.882 43.4945C126.004 17.6006 116.771 -9.21257 114.995 -37.8644L116.771 -38.0176C118.547 -9.67223 127.78 17.1409 136.658 42.8816C143.228 62.0338 150.152 81.9522 153.881 102.483C162.404 148.142 151.218 194.414 140.209 239.154C138.966 243.904 137.901 248.654 136.835 253.403C115.173 344.415 115.883 433.128 116.416 527.051C116.593 542.986 116.771 559.227 116.771 575.315Z" fill="white"/>
<path d="M68.1191 575.315C67.4089 459.941 68.4743 356.213 87.8284 253.71C88.8938 247.581 90.1367 241.452 91.3796 235.324C99.725 192.729 108.425 148.755 101.145 105.854C97.5943 85.1698 91.7347 64.7918 86.0528 45.0267C78.2401 18.3667 70.2499 -9.36576 68.1191 -38.0176L69.8947 -38.1708C71.8479 -9.6722 80.0157 17.9071 87.6508 44.567C93.3328 64.3322 99.3699 84.7102 102.921 105.548C110.201 148.755 101.501 192.882 93.1552 235.477C91.9123 241.605 90.6694 247.734 89.604 253.71C70.2499 355.906 69.1845 459.635 69.8947 575.008L68.1191 575.315Z" fill="white"/>
<path d="M23.0188 575.315H21.2432C22.3085 482.005 28.168 380.421 39.8871 255.395C40.5973 248.5 41.13 241.605 41.8402 234.711C45.9241 194.568 50.008 153.199 45.2139 112.749C42.728 91.2985 38.289 69.6948 34.2051 48.8571C28.5231 20.665 22.6637 -8.5997 21.2432 -38.0176H23.0188C24.4393 -8.5997 30.2987 20.5117 35.9807 48.7039C40.2422 69.5415 44.5036 91.1453 46.9895 112.596C51.7836 153.199 47.5222 194.721 43.6158 234.864C42.9056 241.759 42.1953 248.654 41.6627 255.548C29.9436 380.421 23.9066 482.158 23.0188 575.315Z" fill="white"/>
</svg>
